<mxfile host="app.diagrams.net" agent="Mozilla/5.0 (Windows NT 10.0; Win64; x64) AppleWebKit/537.36 (KHTML, like Gecko) Chrome/137.0.0.0 Safari/537.36" version="27.2.0">
  <diagram name="Page-1" id="JYoQeGoPa1u_azP70eeK">
    <mxGraphModel dx="1042" dy="562" grid="1" gridSize="10" guides="1" tooltips="1" connect="1" arrows="1" fold="1" page="1" pageScale="1" pageWidth="827" pageHeight="1169" math="0" shadow="0">
      <root>
        <mxCell id="0" />
        <mxCell id="1" parent="0" />
        <mxCell id="amPKpVd4kz60Tsj7FkYH-3" style="edgeStyle=orthogonalEdgeStyle;rounded=0;orthogonalLoop=1;jettySize=auto;html=1;entryX=0.5;entryY=0;entryDx=0;entryDy=0;" edge="1" parent="1" source="amPKpVd4kz60Tsj7FkYH-1" target="amPKpVd4kz60Tsj7FkYH-2">
          <mxGeometry relative="1" as="geometry" />
        </mxCell>
        <mxCell id="amPKpVd4kz60Tsj7FkYH-1" value="Inicio" style="ellipse;whiteSpace=wrap;html=1;aspect=fixed;" vertex="1" parent="1">
          <mxGeometry x="340" y="50" width="80" height="80" as="geometry" />
        </mxCell>
        <mxCell id="amPKpVd4kz60Tsj7FkYH-5" value="" style="edgeStyle=orthogonalEdgeStyle;rounded=0;orthogonalLoop=1;jettySize=auto;html=1;" edge="1" parent="1" source="amPKpVd4kz60Tsj7FkYH-2" target="amPKpVd4kz60Tsj7FkYH-4">
          <mxGeometry relative="1" as="geometry" />
        </mxCell>
        <mxCell id="amPKpVd4kz60Tsj7FkYH-2" value="&amp;nbsp;Mostrar mensaje: &quot;Por favor, ingrese la edad del cliente: &quot;" style="shape=parallelogram;perimeter=parallelogramPerimeter;whiteSpace=wrap;html=1;fixedSize=1;fillColor=#fff2cc;strokeColor=#d6b656;" vertex="1" parent="1">
          <mxGeometry x="285" y="150" width="190" height="70" as="geometry" />
        </mxCell>
        <mxCell id="amPKpVd4kz60Tsj7FkYH-7" value="" style="edgeStyle=orthogonalEdgeStyle;rounded=0;orthogonalLoop=1;jettySize=auto;html=1;" edge="1" parent="1" source="amPKpVd4kz60Tsj7FkYH-4" target="amPKpVd4kz60Tsj7FkYH-6">
          <mxGeometry relative="1" as="geometry" />
        </mxCell>
        <mxCell id="amPKpVd4kz60Tsj7FkYH-10" value="" style="edgeStyle=orthogonalEdgeStyle;rounded=0;orthogonalLoop=1;jettySize=auto;html=1;" edge="1" parent="1" source="amPKpVd4kz60Tsj7FkYH-4" target="amPKpVd4kz60Tsj7FkYH-9">
          <mxGeometry relative="1" as="geometry" />
        </mxCell>
        <mxCell id="amPKpVd4kz60Tsj7FkYH-4" value="Si edad es &amp;gt;= 18&amp;nbsp;" style="rhombus;whiteSpace=wrap;html=1;fillColor=#d5e8d4;strokeColor=#82b366;" vertex="1" parent="1">
          <mxGeometry x="300" y="240" width="160" height="90" as="geometry" />
        </mxCell>
        <mxCell id="amPKpVd4kz60Tsj7FkYH-15" style="edgeStyle=orthogonalEdgeStyle;rounded=0;orthogonalLoop=1;jettySize=auto;html=1;" edge="1" parent="1" source="amPKpVd4kz60Tsj7FkYH-6">
          <mxGeometry relative="1" as="geometry">
            <mxPoint x="380" y="500" as="targetPoint" />
            <Array as="points">
              <mxPoint x="620" y="500" />
            </Array>
          </mxGeometry>
        </mxCell>
        <mxCell id="amPKpVd4kz60Tsj7FkYH-6" value="&lt;div&gt;&amp;nbsp;&lt;/div&gt;&lt;div&gt;Asignarle a la variable permitido que sea verdadero&amp;nbsp;&lt;/div&gt;&lt;div&gt;&lt;br&gt;&lt;/div&gt;" style="rounded=1;whiteSpace=wrap;html=1;align=center;fillColor=#dae8fc;strokeColor=#6c8ebf;" vertex="1" parent="1">
          <mxGeometry x="550" y="247.5" width="140" height="75" as="geometry" />
        </mxCell>
        <mxCell id="amPKpVd4kz60Tsj7FkYH-8" value="Si" style="text;html=1;align=center;verticalAlign=middle;resizable=0;points=[];autosize=1;strokeColor=none;fillColor=none;" vertex="1" parent="1">
          <mxGeometry x="480" y="260" width="30" height="30" as="geometry" />
        </mxCell>
        <mxCell id="amPKpVd4kz60Tsj7FkYH-13" value="" style="edgeStyle=orthogonalEdgeStyle;rounded=0;orthogonalLoop=1;jettySize=auto;html=1;" edge="1" parent="1" source="amPKpVd4kz60Tsj7FkYH-9" target="amPKpVd4kz60Tsj7FkYH-12">
          <mxGeometry relative="1" as="geometry" />
        </mxCell>
        <mxCell id="amPKpVd4kz60Tsj7FkYH-9" value="&lt;div&gt;&amp;nbsp;&lt;/div&gt;&lt;div&gt;Asignarle a la variable permitido que sea falso&lt;/div&gt;&lt;div&gt;&lt;br&gt;&lt;/div&gt;" style="rounded=1;whiteSpace=wrap;html=1;align=center;fillColor=#dae8fc;strokeColor=#6c8ebf;" vertex="1" parent="1">
          <mxGeometry x="310" y="400" width="140" height="75" as="geometry" />
        </mxCell>
        <mxCell id="amPKpVd4kz60Tsj7FkYH-11" value="No" style="text;html=1;align=center;verticalAlign=middle;resizable=0;points=[];autosize=1;strokeColor=none;fillColor=none;" vertex="1" parent="1">
          <mxGeometry x="374" y="350" width="40" height="30" as="geometry" />
        </mxCell>
        <mxCell id="amPKpVd4kz60Tsj7FkYH-16" value="" style="edgeStyle=orthogonalEdgeStyle;rounded=0;orthogonalLoop=1;jettySize=auto;html=1;" edge="1" parent="1" source="amPKpVd4kz60Tsj7FkYH-12" target="amPKpVd4kz60Tsj7FkYH-14">
          <mxGeometry relative="1" as="geometry" />
        </mxCell>
        <mxCell id="amPKpVd4kz60Tsj7FkYH-19" value="" style="edgeStyle=orthogonalEdgeStyle;rounded=0;orthogonalLoop=1;jettySize=auto;html=1;" edge="1" parent="1" source="amPKpVd4kz60Tsj7FkYH-12" target="amPKpVd4kz60Tsj7FkYH-17">
          <mxGeometry relative="1" as="geometry" />
        </mxCell>
        <mxCell id="amPKpVd4kz60Tsj7FkYH-12" value="&lt;div&gt;&lt;span style=&quot;background-color: transparent; color: light-dark(rgb(0, 0, 0), rgb(255, 255, 255));&quot;&gt;Â¿Esta permitido&amp;nbsp;&lt;/span&gt;&lt;/div&gt;&lt;div&gt;&lt;span style=&quot;background-color: transparent; color: light-dark(rgb(0, 0, 0), rgb(255, 255, 255));&quot;&gt;el ingreso&lt;/span&gt;&lt;/div&gt;&lt;div&gt;&lt;span style=&quot;background-color: transparent; color: light-dark(rgb(0, 0, 0), rgb(255, 255, 255));&quot;&gt;&amp;nbsp;segun la edad?&lt;/span&gt;&lt;/div&gt;" style="rhombus;whiteSpace=wrap;html=1;fillColor=#d5e8d4;strokeColor=#82b366;" vertex="1" parent="1">
          <mxGeometry x="300" y="520" width="160" height="90" as="geometry" />
        </mxCell>
        <mxCell id="amPKpVd4kz60Tsj7FkYH-14" value="&amp;nbsp;Mostrar mensaje: &quot;!El cliente puede ingresar!&quot;" style="shape=parallelogram;perimeter=parallelogramPerimeter;whiteSpace=wrap;html=1;fixedSize=1;fillColor=#fff2cc;strokeColor=#d6b656;" vertex="1" parent="1">
          <mxGeometry x="540" y="530" width="190" height="70" as="geometry" />
        </mxCell>
        <mxCell id="amPKpVd4kz60Tsj7FkYH-21" value="" style="edgeStyle=orthogonalEdgeStyle;rounded=0;orthogonalLoop=1;jettySize=auto;html=1;" edge="1" parent="1" source="amPKpVd4kz60Tsj7FkYH-17" target="amPKpVd4kz60Tsj7FkYH-20">
          <mxGeometry relative="1" as="geometry" />
        </mxCell>
        <mxCell id="amPKpVd4kz60Tsj7FkYH-17" value="&lt;div&gt;&amp;nbsp;&amp;nbsp;&lt;span style=&quot;background-color: transparent; color: light-dark(rgb(0, 0, 0), rgb(255, 255, 255));&quot;&gt;&amp;nbsp;Mostrar mensaje: &quot;El cliente&amp;nbsp;&lt;/span&gt;&lt;/div&gt;&lt;div&gt;no puede ingresar&quot;&lt;/div&gt;" style="shape=parallelogram;perimeter=parallelogramPerimeter;whiteSpace=wrap;html=1;fixedSize=1;fillColor=#fff2cc;strokeColor=#d6b656;" vertex="1" parent="1">
          <mxGeometry x="285" y="660" width="195" height="70" as="geometry" />
        </mxCell>
        <mxCell id="amPKpVd4kz60Tsj7FkYH-18" value="No" style="text;html=1;align=center;verticalAlign=middle;resizable=0;points=[];autosize=1;strokeColor=none;fillColor=none;" vertex="1" parent="1">
          <mxGeometry x="374" y="620" width="40" height="30" as="geometry" />
        </mxCell>
        <mxCell id="amPKpVd4kz60Tsj7FkYH-20" value="Fin" style="ellipse;whiteSpace=wrap;html=1;aspect=fixed;" vertex="1" parent="1">
          <mxGeometry x="342.5" y="770" width="80" height="80" as="geometry" />
        </mxCell>
      </root>
    </mxGraphModel>
  </diagram>
</mxfile>
